<mxfile host="65bd71144e">
    <diagram id="_xjDTmjIsEmHdev9a_SE" name="ページ1">
        <mxGraphModel dx="846" dy="632" grid="1" gridSize="10" guides="1" tooltips="1" connect="1" arrows="1" fold="1" page="1" pageScale="1" pageWidth="827" pageHeight="1169" math="0" shadow="0">
            <root>
                <mxCell id="0"/>
                <mxCell id="1" parent="0"/>
                <mxCell id="3" value="入力処理部" style="swimlane;whiteSpace=wrap;html=1;rounded=0;" parent="1" vertex="1" collapsed="1">
                    <mxGeometry x="510" y="260" width="100" height="30" as="geometry">
                        <mxRectangle x="260" y="210" width="670" height="280" as="alternateBounds"/>
                    </mxGeometry>
                </mxCell>
                <mxCell id="349" style="edgeStyle=none;html=1;exitX=1;exitY=0.5;exitDx=0;exitDy=0;entryX=0;entryY=0.5;entryDx=0;entryDy=0;startArrow=none;startFill=0;endArrow=classic;endFill=1;" parent="3" source="5" target="6" edge="1">
                    <mxGeometry relative="1" as="geometry"/>
                </mxCell>
                <mxCell id="5" value="ブロック分割" style="rounded=0;whiteSpace=wrap;html=1;" parent="3" vertex="1">
                    <mxGeometry x="250" y="70" width="120" height="60" as="geometry"/>
                </mxCell>
                <mxCell id="6" value="ブロック縦ベクトル化" style="rounded=0;whiteSpace=wrap;html=1;" parent="3" vertex="1">
                    <mxGeometry x="420" y="70" width="170" height="60" as="geometry"/>
                </mxCell>
                <mxCell id="348" style="edgeStyle=none;html=1;exitX=1;exitY=0.5;exitDx=0;exitDy=0;entryX=0;entryY=0.5;entryDx=0;entryDy=0;startArrow=none;startFill=0;endArrow=classic;endFill=1;" parent="3" source="4" target="5" edge="1">
                    <mxGeometry relative="1" as="geometry"/>
                </mxCell>
                <mxCell id="4" value="画像グレースケール化" style="rounded=0;whiteSpace=wrap;html=1;" parent="3" vertex="1">
                    <mxGeometry x="50" y="70" width="140" height="60" as="geometry"/>
                </mxCell>
                <mxCell id="328" value="512×512&lt;br&gt;&amp;nbsp;Glay Image" style="sketch=0;outlineConnect=0;fontColor=#232F3E;gradientColor=none;fillColor=#000000;strokeColor=none;dashed=0;verticalLabelPosition=bottom;verticalAlign=top;align=center;html=1;fontSize=12;fontStyle=0;aspect=fixed;pointerEvents=1;shape=mxgraph.aws4.container_registry_image;opacity=50;" parent="3" vertex="1">
                    <mxGeometry x="200" y="150" width="40" height="40" as="geometry"/>
                </mxCell>
                <mxCell id="334" value="16×16×1024&#10;Glay Image Blocks&#10;" style="group;labelPosition=center;verticalLabelPosition=bottom;align=center;verticalAlign=top;" parent="3" vertex="1" connectable="0">
                    <mxGeometry x="380" y="140" width="90" height="90" as="geometry"/>
                </mxCell>
                <mxCell id="329" value="" style="whiteSpace=wrap;html=1;aspect=fixed;fillColor=#000000;gradientColor=none;opacity=50;verticalAlign=top;labelPosition=center;verticalLabelPosition=bottom;align=center;" parent="334" vertex="1">
                    <mxGeometry width="40" height="40" as="geometry"/>
                </mxCell>
                <mxCell id="332" value="" style="endArrow=none;dashed=1;html=1;dashPattern=1 3;strokeWidth=2;rounded=0;" parent="334" edge="1">
                    <mxGeometry width="50" height="50" relative="1" as="geometry">
                        <mxPoint x="90" y="30" as="sourcePoint"/>
                        <mxPoint x="70" y="30" as="targetPoint"/>
                    </mxGeometry>
                </mxCell>
                <mxCell id="333" value="" style="endArrow=none;dashed=1;html=1;dashPattern=1 3;strokeWidth=2;rounded=0;" parent="334" edge="1">
                    <mxGeometry width="50" height="50" relative="1" as="geometry">
                        <mxPoint x="39.60000000000002" y="90" as="sourcePoint"/>
                        <mxPoint x="39.60000000000002" y="70" as="targetPoint"/>
                    </mxGeometry>
                </mxCell>
                <mxCell id="347" value="256×1024&#10;Vectors" style="group;labelPosition=center;verticalLabelPosition=bottom;align=center;verticalAlign=top;" parent="3" vertex="1" connectable="0">
                    <mxGeometry x="580" y="140" width="50" height="60" as="geometry"/>
                </mxCell>
                <mxCell id="340" value="" style="endArrow=none;dashed=1;html=1;dashPattern=1 3;strokeWidth=2;rounded=0;" parent="347" edge="1">
                    <mxGeometry width="50" height="50" relative="1" as="geometry">
                        <mxPoint x="50" y="29.840000000000003" as="sourcePoint"/>
                        <mxPoint x="30" y="29.840000000000003" as="targetPoint"/>
                    </mxGeometry>
                </mxCell>
                <mxCell id="338" value="" style="rounded=0;whiteSpace=wrap;html=1;fillColor=#000000;gradientColor=none;opacity=50;container=0;" parent="347" vertex="1">
                    <mxGeometry x="10" width="10" height="60" as="geometry"/>
                </mxCell>
                <mxCell id="339" value="" style="rounded=0;whiteSpace=wrap;html=1;fillColor=#000000;gradientColor=none;opacity=50;container=0;" parent="347" vertex="1">
                    <mxGeometry width="10" height="60" as="geometry"/>
                </mxCell>
                <mxCell id="337" value="" style="rounded=0;whiteSpace=wrap;html=1;fillColor=#000000;gradientColor=none;opacity=50;container=0;" parent="347" vertex="1">
                    <mxGeometry x="20" width="10" height="60" as="geometry"/>
                </mxCell>
                <mxCell id="142" value="VAE学習部" style="swimlane;whiteSpace=wrap;html=1;rounded=0;" parent="1" vertex="1" collapsed="1">
                    <mxGeometry x="700" y="230" width="100" height="30" as="geometry">
                        <mxRectangle x="970" y="100" width="660" height="350" as="alternateBounds"/>
                    </mxGeometry>
                </mxCell>
                <mxCell id="352" style="edgeStyle=none;html=1;exitX=0;exitY=0.75;exitDx=0;exitDy=0;entryX=1;entryY=0.5;entryDx=0;entryDy=0;startArrow=none;startFill=0;endArrow=classic;endFill=1;" parent="142" source="146" target="235" edge="1">
                    <mxGeometry relative="1" as="geometry"/>
                </mxCell>
                <mxCell id="379" value="VAEの変数" style="edgeLabel;html=1;align=center;verticalAlign=middle;resizable=0;points=[];" parent="352" vertex="1" connectable="0">
                    <mxGeometry x="-0.4491" relative="1" as="geometry">
                        <mxPoint x="-14" y="-15" as="offset"/>
                    </mxGeometry>
                </mxCell>
                <mxCell id="146" value="VAE" style="swimlane;whiteSpace=wrap;html=1;rounded=0;" parent="142" vertex="1">
                    <mxGeometry x="230" y="30" width="350" height="310" as="geometry">
                        <mxRectangle x="210" y="30" width="60" height="30" as="alternateBounds"/>
                    </mxGeometry>
                </mxCell>
                <mxCell id="147" value="" style="rounded=0;whiteSpace=wrap;html=1;fillColor=#e1d5e7;strokeColor=#9673a6;opacity=50;" parent="146" vertex="1">
                    <mxGeometry x="250" y="30" width="70" height="270" as="geometry"/>
                </mxCell>
                <mxCell id="148" value="" style="rounded=0;whiteSpace=wrap;html=1;fillColor=#f8cecc;strokeColor=#b85450;opacity=50;" parent="146" vertex="1">
                    <mxGeometry x="30" y="30" width="80" height="270" as="geometry"/>
                </mxCell>
                <mxCell id="149" value="" style="rounded=0;whiteSpace=wrap;html=1;fillColor=#fff2cc;strokeColor=#d6b656;gradientColor=none;opacity=50;" parent="146" vertex="1">
                    <mxGeometry x="111" y="30" width="139" height="270" as="geometry"/>
                </mxCell>
                <mxCell id="150" style="edgeStyle=none;html=1;exitX=1;exitY=0.5;exitDx=0;exitDy=0;entryX=0;entryY=0.5;entryDx=0;entryDy=0;endArrow=none;endFill=0;rounded=0;" parent="146" source="154" target="199" edge="1">
                    <mxGeometry relative="1" as="geometry"/>
                </mxCell>
                <mxCell id="151" style="edgeStyle=none;html=1;exitX=1;exitY=0.5;exitDx=0;exitDy=0;entryX=0;entryY=0.5;entryDx=0;entryDy=0;endArrow=none;endFill=0;rounded=0;" parent="146" source="154" target="196" edge="1">
                    <mxGeometry relative="1" as="geometry"/>
                </mxCell>
                <mxCell id="152" style="edgeStyle=none;html=1;exitX=1;exitY=0.5;exitDx=0;exitDy=0;entryX=0;entryY=0.5;entryDx=0;entryDy=0;endArrow=none;endFill=0;rounded=0;" parent="146" source="154" target="193" edge="1">
                    <mxGeometry relative="1" as="geometry"/>
                </mxCell>
                <mxCell id="153" style="edgeStyle=none;html=1;exitX=1;exitY=0.5;exitDx=0;exitDy=0;entryX=0;entryY=0.5;entryDx=0;entryDy=0;endArrow=none;endFill=0;rounded=0;" parent="146" source="154" target="190" edge="1">
                    <mxGeometry relative="1" as="geometry"/>
                </mxCell>
                <mxCell id="154" value="" style="ellipse;whiteSpace=wrap;html=1;aspect=fixed;rounded=0;" parent="146" vertex="1">
                    <mxGeometry x="60" y="40" width="20" height="20" as="geometry"/>
                </mxCell>
                <mxCell id="155" style="edgeStyle=none;html=1;exitX=1;exitY=0.5;exitDx=0;exitDy=0;entryX=0;entryY=0.5;entryDx=0;entryDy=0;endArrow=none;endFill=0;rounded=0;" parent="146" source="159" target="199" edge="1">
                    <mxGeometry relative="1" as="geometry"/>
                </mxCell>
                <mxCell id="156" style="edgeStyle=none;html=1;exitX=1;exitY=0.5;exitDx=0;exitDy=0;entryX=0;entryY=0.5;entryDx=0;entryDy=0;endArrow=none;endFill=0;rounded=0;" parent="146" source="159" target="196" edge="1">
                    <mxGeometry relative="1" as="geometry"/>
                </mxCell>
                <mxCell id="157" style="edgeStyle=none;html=1;exitX=1;exitY=0.5;exitDx=0;exitDy=0;entryX=0;entryY=0.5;entryDx=0;entryDy=0;endArrow=none;endFill=0;rounded=0;" parent="146" source="159" target="193" edge="1">
                    <mxGeometry relative="1" as="geometry"/>
                </mxCell>
                <mxCell id="158" style="edgeStyle=none;html=1;exitX=1;exitY=0.5;exitDx=0;exitDy=0;entryX=0;entryY=0.5;entryDx=0;entryDy=0;endArrow=none;endFill=0;rounded=0;" parent="146" source="159" target="190" edge="1">
                    <mxGeometry relative="1" as="geometry"/>
                </mxCell>
                <mxCell id="159" value="" style="ellipse;whiteSpace=wrap;html=1;aspect=fixed;rounded=0;" parent="146" vertex="1">
                    <mxGeometry x="60" y="70" width="20" height="20" as="geometry"/>
                </mxCell>
                <mxCell id="160" style="edgeStyle=none;html=1;exitX=1;exitY=0.5;exitDx=0;exitDy=0;entryX=0;entryY=0.5;entryDx=0;entryDy=0;endArrow=none;endFill=0;rounded=0;" parent="146" source="164" target="199" edge="1">
                    <mxGeometry relative="1" as="geometry"/>
                </mxCell>
                <mxCell id="161" style="edgeStyle=none;html=1;exitX=1;exitY=0.5;exitDx=0;exitDy=0;entryX=0;entryY=0.5;entryDx=0;entryDy=0;endArrow=none;endFill=0;rounded=0;" parent="146" source="164" target="196" edge="1">
                    <mxGeometry relative="1" as="geometry"/>
                </mxCell>
                <mxCell id="162" style="edgeStyle=none;html=1;exitX=1;exitY=0.5;exitDx=0;exitDy=0;entryX=0;entryY=0.5;entryDx=0;entryDy=0;endArrow=none;endFill=0;rounded=0;" parent="146" source="164" target="193" edge="1">
                    <mxGeometry relative="1" as="geometry"/>
                </mxCell>
                <mxCell id="163" style="edgeStyle=none;html=1;exitX=1;exitY=0.5;exitDx=0;exitDy=0;entryX=0;entryY=0.5;entryDx=0;entryDy=0;endArrow=none;endFill=0;rounded=0;" parent="146" source="164" target="190" edge="1">
                    <mxGeometry relative="1" as="geometry"/>
                </mxCell>
                <mxCell id="164" value="" style="ellipse;whiteSpace=wrap;html=1;aspect=fixed;rounded=0;" parent="146" vertex="1">
                    <mxGeometry x="60" y="100" width="20" height="20" as="geometry"/>
                </mxCell>
                <mxCell id="165" style="edgeStyle=none;html=1;exitX=1;exitY=0.5;exitDx=0;exitDy=0;entryX=0;entryY=0.5;entryDx=0;entryDy=0;endArrow=none;endFill=0;rounded=0;" parent="146" source="169" target="199" edge="1">
                    <mxGeometry relative="1" as="geometry"/>
                </mxCell>
                <mxCell id="166" style="edgeStyle=none;html=1;exitX=1;exitY=0.5;exitDx=0;exitDy=0;entryX=0;entryY=0.5;entryDx=0;entryDy=0;endArrow=none;endFill=0;rounded=0;" parent="146" source="169" target="196" edge="1">
                    <mxGeometry relative="1" as="geometry"/>
                </mxCell>
                <mxCell id="167" style="edgeStyle=none;html=1;exitX=1;exitY=0.5;exitDx=0;exitDy=0;entryX=0;entryY=0.5;entryDx=0;entryDy=0;endArrow=none;endFill=0;rounded=0;" parent="146" source="169" target="193" edge="1">
                    <mxGeometry relative="1" as="geometry"/>
                </mxCell>
                <mxCell id="168" style="edgeStyle=none;html=1;exitX=1;exitY=0.5;exitDx=0;exitDy=0;entryX=0;entryY=0.5;entryDx=0;entryDy=0;endArrow=none;endFill=0;rounded=0;" parent="146" source="169" target="190" edge="1">
                    <mxGeometry relative="1" as="geometry"/>
                </mxCell>
                <mxCell id="169" value="" style="ellipse;whiteSpace=wrap;html=1;aspect=fixed;rounded=0;" parent="146" vertex="1">
                    <mxGeometry x="60" y="160" width="20" height="20" as="geometry"/>
                </mxCell>
                <mxCell id="170" style="edgeStyle=none;html=1;exitX=1;exitY=0.5;exitDx=0;exitDy=0;entryX=0;entryY=0.5;entryDx=0;entryDy=0;endArrow=none;endFill=0;rounded=0;" parent="146" source="174" target="199" edge="1">
                    <mxGeometry relative="1" as="geometry"/>
                </mxCell>
                <mxCell id="171" style="edgeStyle=none;html=1;exitX=1;exitY=0.5;exitDx=0;exitDy=0;entryX=0;entryY=0.5;entryDx=0;entryDy=0;endArrow=none;endFill=0;rounded=0;" parent="146" source="174" target="196" edge="1">
                    <mxGeometry relative="1" as="geometry"/>
                </mxCell>
                <mxCell id="172" style="edgeStyle=none;html=1;exitX=1;exitY=0.5;exitDx=0;exitDy=0;entryX=0;entryY=0.5;entryDx=0;entryDy=0;endArrow=none;endFill=0;rounded=0;" parent="146" source="174" target="193" edge="1">
                    <mxGeometry relative="1" as="geometry"/>
                </mxCell>
                <mxCell id="173" style="edgeStyle=none;html=1;exitX=1;exitY=0.5;exitDx=0;exitDy=0;entryX=0;entryY=0.5;entryDx=0;entryDy=0;endArrow=none;endFill=0;rounded=0;" parent="146" source="174" target="190" edge="1">
                    <mxGeometry relative="1" as="geometry"/>
                </mxCell>
                <mxCell id="174" value="" style="ellipse;whiteSpace=wrap;html=1;aspect=fixed;rounded=0;" parent="146" vertex="1">
                    <mxGeometry x="60" y="190" width="20" height="20" as="geometry"/>
                </mxCell>
                <mxCell id="175" style="edgeStyle=none;html=1;exitX=1;exitY=0.5;exitDx=0;exitDy=0;entryX=0;entryY=0.5;entryDx=0;entryDy=0;endArrow=none;endFill=0;rounded=0;" parent="146" source="179" target="199" edge="1">
                    <mxGeometry relative="1" as="geometry"/>
                </mxCell>
                <mxCell id="176" style="edgeStyle=none;html=1;exitX=1;exitY=0.5;exitDx=0;exitDy=0;entryX=0;entryY=0.5;entryDx=0;entryDy=0;endArrow=none;endFill=0;rounded=0;" parent="146" source="179" target="196" edge="1">
                    <mxGeometry relative="1" as="geometry"/>
                </mxCell>
                <mxCell id="177" style="edgeStyle=none;html=1;exitX=1;exitY=0.5;exitDx=0;exitDy=0;entryX=0;entryY=0.5;entryDx=0;entryDy=0;endArrow=none;endFill=0;rounded=0;" parent="146" source="179" target="193" edge="1">
                    <mxGeometry relative="1" as="geometry"/>
                </mxCell>
                <mxCell id="178" style="edgeStyle=none;html=1;exitX=1;exitY=0.5;exitDx=0;exitDy=0;entryX=0;entryY=0.5;entryDx=0;entryDy=0;endArrow=none;endFill=0;rounded=0;" parent="146" source="179" target="190" edge="1">
                    <mxGeometry relative="1" as="geometry"/>
                </mxCell>
                <mxCell id="179" value="" style="ellipse;whiteSpace=wrap;html=1;aspect=fixed;rounded=0;" parent="146" vertex="1">
                    <mxGeometry x="60" y="220" width="20" height="20" as="geometry"/>
                </mxCell>
                <mxCell id="180" value="" style="ellipse;whiteSpace=wrap;html=1;aspect=fixed;rounded=0;" parent="146" vertex="1">
                    <mxGeometry x="270" y="40" width="20" height="20" as="geometry"/>
                </mxCell>
                <mxCell id="181" value="" style="ellipse;whiteSpace=wrap;html=1;aspect=fixed;rounded=0;" parent="146" vertex="1">
                    <mxGeometry x="270" y="70" width="20" height="20" as="geometry"/>
                </mxCell>
                <mxCell id="182" value="" style="ellipse;whiteSpace=wrap;html=1;aspect=fixed;rounded=0;" parent="146" vertex="1">
                    <mxGeometry x="270" y="100" width="20" height="20" as="geometry"/>
                </mxCell>
                <mxCell id="183" value="" style="ellipse;whiteSpace=wrap;html=1;aspect=fixed;rounded=0;" parent="146" vertex="1">
                    <mxGeometry x="270" y="160" width="20" height="20" as="geometry"/>
                </mxCell>
                <mxCell id="184" value="" style="ellipse;whiteSpace=wrap;html=1;aspect=fixed;rounded=0;" parent="146" vertex="1">
                    <mxGeometry x="270" y="190" width="20" height="20" as="geometry"/>
                </mxCell>
                <mxCell id="185" value="" style="ellipse;whiteSpace=wrap;html=1;aspect=fixed;rounded=0;" parent="146" vertex="1">
                    <mxGeometry x="270" y="220" width="20" height="20" as="geometry"/>
                </mxCell>
                <mxCell id="186" value="エンコーダ&lt;br&gt;256次元" style="text;html=1;strokeColor=none;fillColor=none;align=center;verticalAlign=middle;whiteSpace=wrap;rounded=0;" parent="146" vertex="1">
                    <mxGeometry x="20" y="260" width="100" height="30" as="geometry"/>
                </mxCell>
                <mxCell id="187" value="潜在層&lt;br&gt;16次元" style="text;html=1;strokeColor=none;fillColor=none;align=center;verticalAlign=middle;whiteSpace=wrap;rounded=0;" parent="146" vertex="1">
                    <mxGeometry x="131" y="260" width="100" height="30" as="geometry"/>
                </mxCell>
                <mxCell id="188" value="デコーダ&lt;br&gt;256次元" style="text;html=1;strokeColor=none;fillColor=none;align=center;verticalAlign=middle;whiteSpace=wrap;rounded=0;" parent="146" vertex="1">
                    <mxGeometry x="230" y="260" width="100" height="30" as="geometry"/>
                </mxCell>
                <mxCell id="189" value="" style="group;rounded=0;" parent="146" vertex="1" connectable="0">
                    <mxGeometry x="131" y="200" width="20" height="20" as="geometry"/>
                </mxCell>
                <mxCell id="190" value="" style="ellipse;whiteSpace=wrap;html=1;aspect=fixed;rounded=0;" parent="189" vertex="1">
                    <mxGeometry width="20" height="20" as="geometry"/>
                </mxCell>
                <mxCell id="191" value="" style="endArrow=none;html=1;entryX=0.5;entryY=0;entryDx=0;entryDy=0;exitX=0.5;exitY=1;exitDx=0;exitDy=0;rounded=0;" parent="189" edge="1">
                    <mxGeometry width="50" height="50" relative="1" as="geometry">
                        <mxPoint x="9.88000000000011" y="20" as="sourcePoint"/>
                        <mxPoint x="9.88000000000011" as="targetPoint"/>
                    </mxGeometry>
                </mxCell>
                <mxCell id="192" value="" style="group;rounded=0;" parent="146" vertex="1" connectable="0">
                    <mxGeometry x="131" y="170" width="20" height="20" as="geometry"/>
                </mxCell>
                <mxCell id="193" value="" style="ellipse;whiteSpace=wrap;html=1;aspect=fixed;rounded=0;" parent="192" vertex="1">
                    <mxGeometry width="20" height="20" as="geometry"/>
                </mxCell>
                <mxCell id="194" value="" style="endArrow=none;html=1;entryX=0.5;entryY=0;entryDx=0;entryDy=0;exitX=0.5;exitY=1;exitDx=0;exitDy=0;rounded=0;" parent="192" edge="1">
                    <mxGeometry width="50" height="50" relative="1" as="geometry">
                        <mxPoint x="9.88000000000011" y="20" as="sourcePoint"/>
                        <mxPoint x="9.88000000000011" as="targetPoint"/>
                    </mxGeometry>
                </mxCell>
                <mxCell id="195" value="" style="group;rounded=0;" parent="146" vertex="1" connectable="0">
                    <mxGeometry x="131" y="90" width="20" height="20" as="geometry"/>
                </mxCell>
                <mxCell id="196" value="" style="ellipse;whiteSpace=wrap;html=1;aspect=fixed;rounded=0;" parent="195" vertex="1">
                    <mxGeometry width="20" height="20" as="geometry"/>
                </mxCell>
                <mxCell id="197" value="" style="endArrow=none;html=1;entryX=0.5;entryY=0;entryDx=0;entryDy=0;exitX=0.5;exitY=1;exitDx=0;exitDy=0;rounded=0;" parent="195" edge="1">
                    <mxGeometry width="50" height="50" relative="1" as="geometry">
                        <mxPoint x="9.88000000000011" y="20" as="sourcePoint"/>
                        <mxPoint x="9.88000000000011" as="targetPoint"/>
                    </mxGeometry>
                </mxCell>
                <mxCell id="198" value="" style="group;rounded=0;" parent="146" vertex="1" connectable="0">
                    <mxGeometry x="131" y="60" width="20" height="20" as="geometry"/>
                </mxCell>
                <mxCell id="199" value="" style="ellipse;whiteSpace=wrap;html=1;aspect=fixed;rounded=0;" parent="198" vertex="1">
                    <mxGeometry width="20" height="20" as="geometry"/>
                </mxCell>
                <mxCell id="200" value="" style="endArrow=none;html=1;entryX=0.5;entryY=0;entryDx=0;entryDy=0;exitX=0.5;exitY=1;exitDx=0;exitDy=0;rounded=0;" parent="198" source="199" target="199" edge="1">
                    <mxGeometry width="50" height="50" relative="1" as="geometry">
                        <mxPoint x="29" y="100" as="sourcePoint"/>
                        <mxPoint x="79" y="50" as="targetPoint"/>
                    </mxGeometry>
                </mxCell>
                <mxCell id="201" style="edgeStyle=orthogonalEdgeStyle;rounded=0;html=1;exitX=1;exitY=0.5;exitDx=0;exitDy=0;entryX=0.5;entryY=1;entryDx=0;entryDy=0;entryPerimeter=0;endArrow=none;endFill=0;" parent="146" source="202" target="222" edge="1">
                    <mxGeometry relative="1" as="geometry"/>
                </mxCell>
                <mxCell id="202" value="" style="ellipse;whiteSpace=wrap;html=1;aspect=fixed;rounded=0;" parent="146" vertex="1">
                    <mxGeometry x="170" y="95" width="10" height="10" as="geometry"/>
                </mxCell>
                <mxCell id="203" style="edgeStyle=orthogonalEdgeStyle;rounded=0;html=1;exitX=1;exitY=0.5;exitDx=0;exitDy=0;entryX=0.5;entryY=1;entryDx=0;entryDy=0;entryPerimeter=0;endArrow=none;endFill=0;" parent="146" source="204" target="224" edge="1">
                    <mxGeometry relative="1" as="geometry"/>
                </mxCell>
                <mxCell id="204" value="" style="ellipse;whiteSpace=wrap;html=1;aspect=fixed;rounded=0;" parent="146" vertex="1">
                    <mxGeometry x="170" y="205" width="10" height="10" as="geometry"/>
                </mxCell>
                <mxCell id="205" value="" style="endArrow=none;dashed=1;html=1;dashPattern=1 3;strokeWidth=2;rounded=0;" parent="146" edge="1">
                    <mxGeometry width="50" height="50" relative="1" as="geometry">
                        <mxPoint x="141" y="150" as="sourcePoint"/>
                        <mxPoint x="141" y="130" as="targetPoint"/>
                    </mxGeometry>
                </mxCell>
                <mxCell id="206" style="edgeStyle=none;html=1;exitX=1;exitY=0.5;exitDx=0;exitDy=0;entryX=0;entryY=0.5;entryDx=0;entryDy=0;endArrow=none;endFill=0;" parent="146" source="212" target="180" edge="1">
                    <mxGeometry relative="1" as="geometry"/>
                </mxCell>
                <mxCell id="207" style="edgeStyle=none;html=1;exitX=1;exitY=0.5;exitDx=0;exitDy=0;entryX=0;entryY=0.5;entryDx=0;entryDy=0;endArrow=none;endFill=0;" parent="146" source="212" target="181" edge="1">
                    <mxGeometry relative="1" as="geometry"/>
                </mxCell>
                <mxCell id="208" style="edgeStyle=none;html=1;exitX=1;exitY=0.5;exitDx=0;exitDy=0;entryX=0;entryY=0.5;entryDx=0;entryDy=0;endArrow=none;endFill=0;" parent="146" source="212" target="182" edge="1">
                    <mxGeometry relative="1" as="geometry"/>
                </mxCell>
                <mxCell id="209" style="edgeStyle=none;html=1;exitX=1;exitY=0.5;exitDx=0;exitDy=0;entryX=0;entryY=0.5;entryDx=0;entryDy=0;endArrow=none;endFill=0;" parent="146" source="212" target="183" edge="1">
                    <mxGeometry relative="1" as="geometry"/>
                </mxCell>
                <mxCell id="210" style="edgeStyle=none;html=1;exitX=1;exitY=0.5;exitDx=0;exitDy=0;entryX=0;entryY=0.5;entryDx=0;entryDy=0;endArrow=none;endFill=0;" parent="146" source="212" target="184" edge="1">
                    <mxGeometry relative="1" as="geometry"/>
                </mxCell>
                <mxCell id="211" style="edgeStyle=none;html=1;exitX=1;exitY=0.5;exitDx=0;exitDy=0;entryX=0;entryY=0.5;entryDx=0;entryDy=0;endArrow=none;endFill=0;" parent="146" source="212" target="185" edge="1">
                    <mxGeometry relative="1" as="geometry"/>
                </mxCell>
                <mxCell id="212" value="" style="ellipse;whiteSpace=wrap;html=1;aspect=fixed;rounded=0;" parent="146" vertex="1">
                    <mxGeometry x="220" y="70" width="20" height="20" as="geometry"/>
                </mxCell>
                <mxCell id="213" style="edgeStyle=none;html=1;exitX=1;exitY=0.5;exitDx=0;exitDy=0;entryX=0;entryY=0.5;entryDx=0;entryDy=0;endArrow=none;endFill=0;" parent="146" source="218" target="181" edge="1">
                    <mxGeometry relative="1" as="geometry"/>
                </mxCell>
                <mxCell id="214" style="edgeStyle=none;html=1;exitX=1;exitY=0.5;exitDx=0;exitDy=0;entryX=0;entryY=0.5;entryDx=0;entryDy=0;endArrow=none;endFill=0;" parent="146" source="218" target="182" edge="1">
                    <mxGeometry relative="1" as="geometry"/>
                </mxCell>
                <mxCell id="215" style="edgeStyle=none;html=1;exitX=1;exitY=0.5;exitDx=0;exitDy=0;entryX=0;entryY=0.5;entryDx=0;entryDy=0;endArrow=none;endFill=0;" parent="146" source="218" target="183" edge="1">
                    <mxGeometry relative="1" as="geometry"/>
                </mxCell>
                <mxCell id="216" style="edgeStyle=none;html=1;exitX=1;exitY=0.5;exitDx=0;exitDy=0;entryX=0;entryY=0.5;entryDx=0;entryDy=0;endArrow=none;endFill=0;" parent="146" source="218" target="184" edge="1">
                    <mxGeometry relative="1" as="geometry"/>
                </mxCell>
                <mxCell id="217" style="edgeStyle=none;html=1;exitX=1;exitY=0.5;exitDx=0;exitDy=0;entryX=0;entryY=0.5;entryDx=0;entryDy=0;endArrow=none;endFill=0;" parent="146" source="218" target="185" edge="1">
                    <mxGeometry relative="1" as="geometry"/>
                </mxCell>
                <mxCell id="218" value="" style="ellipse;whiteSpace=wrap;html=1;aspect=fixed;rounded=0;" parent="146" vertex="1">
                    <mxGeometry x="220" y="190" width="20" height="20" as="geometry"/>
                </mxCell>
                <mxCell id="219" value="" style="endArrow=none;dashed=1;html=1;dashPattern=1 3;strokeWidth=2;rounded=0;" parent="146" edge="1">
                    <mxGeometry width="50" height="50" relative="1" as="geometry">
                        <mxPoint x="69.87" y="150" as="sourcePoint"/>
                        <mxPoint x="69.87" y="130" as="targetPoint"/>
                    </mxGeometry>
                </mxCell>
                <mxCell id="220" value="" style="endArrow=none;dashed=1;html=1;dashPattern=1 3;strokeWidth=2;rounded=0;" parent="146" edge="1">
                    <mxGeometry width="50" height="50" relative="1" as="geometry">
                        <mxPoint x="279.8699999999999" y="150" as="sourcePoint"/>
                        <mxPoint x="279.8699999999999" y="130" as="targetPoint"/>
                    </mxGeometry>
                </mxCell>
                <mxCell id="221" style="edgeStyle=orthogonalEdgeStyle;rounded=0;html=1;exitX=1;exitY=0.5;exitDx=0;exitDy=0;exitPerimeter=0;entryX=0;entryY=0.5;entryDx=0;entryDy=0;endArrow=none;endFill=0;" parent="146" source="222" target="212" edge="1">
                    <mxGeometry relative="1" as="geometry"/>
                </mxCell>
                <mxCell id="222" value="" style="verticalLabelPosition=bottom;verticalAlign=top;html=1;shape=mxgraph.flowchart.summing_function;rounded=0;" parent="146" vertex="1">
                    <mxGeometry x="190" y="75" width="10" height="10" as="geometry"/>
                </mxCell>
                <mxCell id="223" style="edgeStyle=orthogonalEdgeStyle;rounded=0;html=1;exitX=1;exitY=0.5;exitDx=0;exitDy=0;exitPerimeter=0;entryX=0;entryY=0.5;entryDx=0;entryDy=0;endArrow=none;endFill=0;" parent="146" source="224" target="218" edge="1">
                    <mxGeometry relative="1" as="geometry"/>
                </mxCell>
                <mxCell id="224" value="" style="verticalLabelPosition=bottom;verticalAlign=top;html=1;shape=mxgraph.flowchart.summing_function;rounded=0;" parent="146" vertex="1">
                    <mxGeometry x="190" y="195" width="10" height="10" as="geometry"/>
                </mxCell>
                <mxCell id="225" style="html=1;exitX=1;exitY=0.5;exitDx=0;exitDy=0;entryX=0.5;entryY=0;entryDx=0;entryDy=0;entryPerimeter=0;endArrow=none;endFill=0;rounded=0;edgeStyle=orthogonalEdgeStyle;" parent="146" source="199" target="222" edge="1">
                    <mxGeometry relative="1" as="geometry">
                        <Array as="points">
                            <mxPoint x="195" y="70"/>
                        </Array>
                    </mxGeometry>
                </mxCell>
                <mxCell id="226" style="edgeStyle=orthogonalEdgeStyle;rounded=0;html=1;exitX=1;exitY=0.5;exitDx=0;exitDy=0;entryX=0;entryY=0.5;entryDx=0;entryDy=0;endArrow=none;endFill=0;" parent="146" source="196" target="202" edge="1">
                    <mxGeometry relative="1" as="geometry"/>
                </mxCell>
                <mxCell id="227" style="edgeStyle=orthogonalEdgeStyle;rounded=0;html=1;exitX=1;exitY=0.5;exitDx=0;exitDy=0;entryX=0.5;entryY=0;entryDx=0;entryDy=0;entryPerimeter=0;endArrow=none;endFill=0;" parent="146" source="193" target="224" edge="1">
                    <mxGeometry relative="1" as="geometry"/>
                </mxCell>
                <mxCell id="228" style="edgeStyle=orthogonalEdgeStyle;rounded=0;html=1;exitX=1;exitY=0.5;exitDx=0;exitDy=0;entryX=0;entryY=0.5;entryDx=0;entryDy=0;endArrow=none;endFill=0;" parent="146" source="190" target="204" edge="1">
                    <mxGeometry relative="1" as="geometry"/>
                </mxCell>
                <mxCell id="229" style="html=1;exitX=1;exitY=0.5;exitDx=0;exitDy=0;endArrow=none;endFill=0;entryX=0;entryY=0.5;entryDx=0;entryDy=0;" parent="146" source="218" target="180" edge="1">
                    <mxGeometry relative="1" as="geometry">
                        <mxPoint x="260" y="149.99999999999994" as="targetPoint"/>
                    </mxGeometry>
                </mxCell>
                <mxCell id="234" value="VAE入力処理" style="rounded=0;whiteSpace=wrap;html=1;fillColor=none;gradientColor=none;opacity=50;" parent="142" vertex="1">
                    <mxGeometry x="50" y="70" width="120" height="70" as="geometry"/>
                </mxCell>
                <mxCell id="235" value="VAE学習管理" style="rounded=0;whiteSpace=wrap;html=1;fillColor=none;gradientColor=none;opacity=50;" parent="142" vertex="1">
                    <mxGeometry x="50" y="240" width="120" height="60" as="geometry"/>
                </mxCell>
                <mxCell id="351" style="edgeStyle=none;html=1;exitX=1;exitY=0.5;exitDx=0;exitDy=0;startArrow=none;startFill=0;endArrow=classic;endFill=1;entryX=0;entryY=0.25;entryDx=0;entryDy=0;" parent="142" source="234" target="146" edge="1">
                    <mxGeometry relative="1" as="geometry">
                        <mxPoint x="210" y="145" as="targetPoint"/>
                    </mxGeometry>
                </mxCell>
                <mxCell id="236" value="VAE利用部" style="swimlane;whiteSpace=wrap;html=1;rounded=0;" parent="1" vertex="1" collapsed="1">
                    <mxGeometry x="700" y="330" width="100" height="30" as="geometry">
                        <mxRectangle x="970" y="510" width="740" height="800" as="alternateBounds"/>
                    </mxGeometry>
                </mxCell>
                <mxCell id="357" style="edgeStyle=none;html=1;exitX=1;exitY=0.75;exitDx=0;exitDy=0;entryX=0;entryY=0.5;entryDx=0;entryDy=0;startArrow=none;startFill=0;endArrow=classic;endFill=1;" parent="236" source="237" target="323" edge="1">
                    <mxGeometry relative="1" as="geometry"/>
                </mxCell>
                <mxCell id="237" value="VAE" style="swimlane;whiteSpace=wrap;html=1;rounded=0;" parent="236" vertex="1">
                    <mxGeometry x="210" y="30" width="350" height="310" as="geometry"/>
                </mxCell>
                <mxCell id="238" value="" style="rounded=0;whiteSpace=wrap;html=1;fillColor=#e1d5e7;strokeColor=#9673a6;opacity=50;" parent="237" vertex="1">
                    <mxGeometry x="250" y="30" width="70" height="270" as="geometry"/>
                </mxCell>
                <mxCell id="239" value="" style="rounded=0;whiteSpace=wrap;html=1;fillColor=#f8cecc;strokeColor=#b85450;opacity=50;" parent="237" vertex="1">
                    <mxGeometry x="30" y="30" width="80" height="270" as="geometry"/>
                </mxCell>
                <mxCell id="240" value="" style="rounded=0;whiteSpace=wrap;html=1;fillColor=#fff2cc;strokeColor=#d6b656;gradientColor=none;opacity=50;" parent="237" vertex="1">
                    <mxGeometry x="111" y="30" width="139" height="270" as="geometry"/>
                </mxCell>
                <mxCell id="241" style="edgeStyle=none;html=1;exitX=1;exitY=0.5;exitDx=0;exitDy=0;entryX=0;entryY=0.5;entryDx=0;entryDy=0;endArrow=none;endFill=0;rounded=0;" parent="237" source="245" target="290" edge="1">
                    <mxGeometry relative="1" as="geometry"/>
                </mxCell>
                <mxCell id="242" style="edgeStyle=none;html=1;exitX=1;exitY=0.5;exitDx=0;exitDy=0;entryX=0;entryY=0.5;entryDx=0;entryDy=0;endArrow=none;endFill=0;rounded=0;" parent="237" source="245" target="287" edge="1">
                    <mxGeometry relative="1" as="geometry"/>
                </mxCell>
                <mxCell id="243" style="edgeStyle=none;html=1;exitX=1;exitY=0.5;exitDx=0;exitDy=0;entryX=0;entryY=0.5;entryDx=0;entryDy=0;endArrow=none;endFill=0;rounded=0;" parent="237" source="245" target="284" edge="1">
                    <mxGeometry relative="1" as="geometry"/>
                </mxCell>
                <mxCell id="244" style="edgeStyle=none;html=1;exitX=1;exitY=0.5;exitDx=0;exitDy=0;entryX=0;entryY=0.5;entryDx=0;entryDy=0;endArrow=none;endFill=0;rounded=0;" parent="237" source="245" target="281" edge="1">
                    <mxGeometry relative="1" as="geometry"/>
                </mxCell>
                <mxCell id="245" value="" style="ellipse;whiteSpace=wrap;html=1;aspect=fixed;rounded=0;" parent="237" vertex="1">
                    <mxGeometry x="60" y="40" width="20" height="20" as="geometry"/>
                </mxCell>
                <mxCell id="246" style="edgeStyle=none;html=1;exitX=1;exitY=0.5;exitDx=0;exitDy=0;entryX=0;entryY=0.5;entryDx=0;entryDy=0;endArrow=none;endFill=0;rounded=0;" parent="237" source="250" target="290" edge="1">
                    <mxGeometry relative="1" as="geometry"/>
                </mxCell>
                <mxCell id="247" style="edgeStyle=none;html=1;exitX=1;exitY=0.5;exitDx=0;exitDy=0;entryX=0;entryY=0.5;entryDx=0;entryDy=0;endArrow=none;endFill=0;rounded=0;" parent="237" source="250" target="287" edge="1">
                    <mxGeometry relative="1" as="geometry"/>
                </mxCell>
                <mxCell id="248" style="edgeStyle=none;html=1;exitX=1;exitY=0.5;exitDx=0;exitDy=0;entryX=0;entryY=0.5;entryDx=0;entryDy=0;endArrow=none;endFill=0;rounded=0;" parent="237" source="250" target="284" edge="1">
                    <mxGeometry relative="1" as="geometry"/>
                </mxCell>
                <mxCell id="249" style="edgeStyle=none;html=1;exitX=1;exitY=0.5;exitDx=0;exitDy=0;entryX=0;entryY=0.5;entryDx=0;entryDy=0;endArrow=none;endFill=0;rounded=0;" parent="237" source="250" target="281" edge="1">
                    <mxGeometry relative="1" as="geometry"/>
                </mxCell>
                <mxCell id="250" value="" style="ellipse;whiteSpace=wrap;html=1;aspect=fixed;rounded=0;" parent="237" vertex="1">
                    <mxGeometry x="60" y="70" width="20" height="20" as="geometry"/>
                </mxCell>
                <mxCell id="251" style="edgeStyle=none;html=1;exitX=1;exitY=0.5;exitDx=0;exitDy=0;entryX=0;entryY=0.5;entryDx=0;entryDy=0;endArrow=none;endFill=0;rounded=0;" parent="237" source="255" target="290" edge="1">
                    <mxGeometry relative="1" as="geometry"/>
                </mxCell>
                <mxCell id="252" style="edgeStyle=none;html=1;exitX=1;exitY=0.5;exitDx=0;exitDy=0;entryX=0;entryY=0.5;entryDx=0;entryDy=0;endArrow=none;endFill=0;rounded=0;" parent="237" source="255" target="287" edge="1">
                    <mxGeometry relative="1" as="geometry"/>
                </mxCell>
                <mxCell id="253" style="edgeStyle=none;html=1;exitX=1;exitY=0.5;exitDx=0;exitDy=0;entryX=0;entryY=0.5;entryDx=0;entryDy=0;endArrow=none;endFill=0;rounded=0;" parent="237" source="255" target="284" edge="1">
                    <mxGeometry relative="1" as="geometry"/>
                </mxCell>
                <mxCell id="254" style="edgeStyle=none;html=1;exitX=1;exitY=0.5;exitDx=0;exitDy=0;entryX=0;entryY=0.5;entryDx=0;entryDy=0;endArrow=none;endFill=0;rounded=0;" parent="237" source="255" target="281" edge="1">
                    <mxGeometry relative="1" as="geometry"/>
                </mxCell>
                <mxCell id="255" value="" style="ellipse;whiteSpace=wrap;html=1;aspect=fixed;rounded=0;" parent="237" vertex="1">
                    <mxGeometry x="60" y="100" width="20" height="20" as="geometry"/>
                </mxCell>
                <mxCell id="256" style="edgeStyle=none;html=1;exitX=1;exitY=0.5;exitDx=0;exitDy=0;entryX=0;entryY=0.5;entryDx=0;entryDy=0;endArrow=none;endFill=0;rounded=0;" parent="237" source="260" target="290" edge="1">
                    <mxGeometry relative="1" as="geometry"/>
                </mxCell>
                <mxCell id="257" style="edgeStyle=none;html=1;exitX=1;exitY=0.5;exitDx=0;exitDy=0;entryX=0;entryY=0.5;entryDx=0;entryDy=0;endArrow=none;endFill=0;rounded=0;" parent="237" source="260" target="287" edge="1">
                    <mxGeometry relative="1" as="geometry"/>
                </mxCell>
                <mxCell id="258" style="edgeStyle=none;html=1;exitX=1;exitY=0.5;exitDx=0;exitDy=0;entryX=0;entryY=0.5;entryDx=0;entryDy=0;endArrow=none;endFill=0;rounded=0;" parent="237" source="260" target="284" edge="1">
                    <mxGeometry relative="1" as="geometry"/>
                </mxCell>
                <mxCell id="259" style="edgeStyle=none;html=1;exitX=1;exitY=0.5;exitDx=0;exitDy=0;entryX=0;entryY=0.5;entryDx=0;entryDy=0;endArrow=none;endFill=0;rounded=0;" parent="237" source="260" target="281" edge="1">
                    <mxGeometry relative="1" as="geometry"/>
                </mxCell>
                <mxCell id="260" value="" style="ellipse;whiteSpace=wrap;html=1;aspect=fixed;rounded=0;" parent="237" vertex="1">
                    <mxGeometry x="60" y="160" width="20" height="20" as="geometry"/>
                </mxCell>
                <mxCell id="261" style="edgeStyle=none;html=1;exitX=1;exitY=0.5;exitDx=0;exitDy=0;entryX=0;entryY=0.5;entryDx=0;entryDy=0;endArrow=none;endFill=0;rounded=0;" parent="237" source="265" target="290" edge="1">
                    <mxGeometry relative="1" as="geometry"/>
                </mxCell>
                <mxCell id="262" style="edgeStyle=none;html=1;exitX=1;exitY=0.5;exitDx=0;exitDy=0;entryX=0;entryY=0.5;entryDx=0;entryDy=0;endArrow=none;endFill=0;rounded=0;" parent="237" source="265" target="287" edge="1">
                    <mxGeometry relative="1" as="geometry"/>
                </mxCell>
                <mxCell id="263" style="edgeStyle=none;html=1;exitX=1;exitY=0.5;exitDx=0;exitDy=0;entryX=0;entryY=0.5;entryDx=0;entryDy=0;endArrow=none;endFill=0;rounded=0;" parent="237" source="265" target="284" edge="1">
                    <mxGeometry relative="1" as="geometry"/>
                </mxCell>
                <mxCell id="264" style="edgeStyle=none;html=1;exitX=1;exitY=0.5;exitDx=0;exitDy=0;entryX=0;entryY=0.5;entryDx=0;entryDy=0;endArrow=none;endFill=0;rounded=0;" parent="237" source="265" target="281" edge="1">
                    <mxGeometry relative="1" as="geometry"/>
                </mxCell>
                <mxCell id="265" value="" style="ellipse;whiteSpace=wrap;html=1;aspect=fixed;rounded=0;" parent="237" vertex="1">
                    <mxGeometry x="60" y="190" width="20" height="20" as="geometry"/>
                </mxCell>
                <mxCell id="266" style="edgeStyle=none;html=1;exitX=1;exitY=0.5;exitDx=0;exitDy=0;entryX=0;entryY=0.5;entryDx=0;entryDy=0;endArrow=none;endFill=0;rounded=0;" parent="237" source="270" target="290" edge="1">
                    <mxGeometry relative="1" as="geometry"/>
                </mxCell>
                <mxCell id="267" style="edgeStyle=none;html=1;exitX=1;exitY=0.5;exitDx=0;exitDy=0;entryX=0;entryY=0.5;entryDx=0;entryDy=0;endArrow=none;endFill=0;rounded=0;" parent="237" source="270" target="287" edge="1">
                    <mxGeometry relative="1" as="geometry"/>
                </mxCell>
                <mxCell id="268" style="edgeStyle=none;html=1;exitX=1;exitY=0.5;exitDx=0;exitDy=0;entryX=0;entryY=0.5;entryDx=0;entryDy=0;endArrow=none;endFill=0;rounded=0;" parent="237" source="270" target="284" edge="1">
                    <mxGeometry relative="1" as="geometry"/>
                </mxCell>
                <mxCell id="269" style="edgeStyle=none;html=1;exitX=1;exitY=0.5;exitDx=0;exitDy=0;entryX=0;entryY=0.5;entryDx=0;entryDy=0;endArrow=none;endFill=0;rounded=0;" parent="237" source="270" target="281" edge="1">
                    <mxGeometry relative="1" as="geometry"/>
                </mxCell>
                <mxCell id="270" value="" style="ellipse;whiteSpace=wrap;html=1;aspect=fixed;rounded=0;" parent="237" vertex="1">
                    <mxGeometry x="60" y="220" width="20" height="20" as="geometry"/>
                </mxCell>
                <mxCell id="271" value="" style="ellipse;whiteSpace=wrap;html=1;aspect=fixed;rounded=0;" parent="237" vertex="1">
                    <mxGeometry x="270" y="40" width="20" height="20" as="geometry"/>
                </mxCell>
                <mxCell id="272" value="" style="ellipse;whiteSpace=wrap;html=1;aspect=fixed;rounded=0;" parent="237" vertex="1">
                    <mxGeometry x="270" y="70" width="20" height="20" as="geometry"/>
                </mxCell>
                <mxCell id="273" value="" style="ellipse;whiteSpace=wrap;html=1;aspect=fixed;rounded=0;" parent="237" vertex="1">
                    <mxGeometry x="270" y="100" width="20" height="20" as="geometry"/>
                </mxCell>
                <mxCell id="274" value="" style="ellipse;whiteSpace=wrap;html=1;aspect=fixed;rounded=0;" parent="237" vertex="1">
                    <mxGeometry x="270" y="160" width="20" height="20" as="geometry"/>
                </mxCell>
                <mxCell id="275" value="" style="ellipse;whiteSpace=wrap;html=1;aspect=fixed;rounded=0;" parent="237" vertex="1">
                    <mxGeometry x="270" y="190" width="20" height="20" as="geometry"/>
                </mxCell>
                <mxCell id="276" value="" style="ellipse;whiteSpace=wrap;html=1;aspect=fixed;rounded=0;" parent="237" vertex="1">
                    <mxGeometry x="270" y="220" width="20" height="20" as="geometry"/>
                </mxCell>
                <mxCell id="277" value="エンコーダ&lt;br&gt;256次元" style="text;html=1;strokeColor=none;fillColor=none;align=center;verticalAlign=middle;whiteSpace=wrap;rounded=0;" parent="237" vertex="1">
                    <mxGeometry x="20" y="260" width="100" height="30" as="geometry"/>
                </mxCell>
                <mxCell id="278" value="潜在層&lt;br&gt;16次元" style="text;html=1;strokeColor=none;fillColor=none;align=center;verticalAlign=middle;whiteSpace=wrap;rounded=0;" parent="237" vertex="1">
                    <mxGeometry x="131" y="260" width="100" height="30" as="geometry"/>
                </mxCell>
                <mxCell id="279" value="デコーダ&lt;br&gt;256次元" style="text;html=1;strokeColor=none;fillColor=none;align=center;verticalAlign=middle;whiteSpace=wrap;rounded=0;" parent="237" vertex="1">
                    <mxGeometry x="230" y="260" width="100" height="30" as="geometry"/>
                </mxCell>
                <mxCell id="280" value="" style="group;rounded=0;" parent="237" vertex="1" connectable="0">
                    <mxGeometry x="131" y="200" width="20" height="20" as="geometry"/>
                </mxCell>
                <mxCell id="281" value="" style="ellipse;whiteSpace=wrap;html=1;aspect=fixed;rounded=0;" parent="280" vertex="1">
                    <mxGeometry width="20" height="20" as="geometry"/>
                </mxCell>
                <mxCell id="282" value="" style="endArrow=none;html=1;entryX=0.5;entryY=0;entryDx=0;entryDy=0;exitX=0.5;exitY=1;exitDx=0;exitDy=0;rounded=0;" parent="280" edge="1">
                    <mxGeometry width="50" height="50" relative="1" as="geometry">
                        <mxPoint x="9.88000000000011" y="20" as="sourcePoint"/>
                        <mxPoint x="9.88000000000011" as="targetPoint"/>
                    </mxGeometry>
                </mxCell>
                <mxCell id="283" value="" style="group;rounded=0;" parent="237" vertex="1" connectable="0">
                    <mxGeometry x="131" y="170" width="20" height="20" as="geometry"/>
                </mxCell>
                <mxCell id="284" value="" style="ellipse;whiteSpace=wrap;html=1;aspect=fixed;rounded=0;" parent="283" vertex="1">
                    <mxGeometry width="20" height="20" as="geometry"/>
                </mxCell>
                <mxCell id="285" value="" style="endArrow=none;html=1;entryX=0.5;entryY=0;entryDx=0;entryDy=0;exitX=0.5;exitY=1;exitDx=0;exitDy=0;rounded=0;" parent="283" edge="1">
                    <mxGeometry width="50" height="50" relative="1" as="geometry">
                        <mxPoint x="9.88000000000011" y="20" as="sourcePoint"/>
                        <mxPoint x="9.88000000000011" as="targetPoint"/>
                    </mxGeometry>
                </mxCell>
                <mxCell id="286" value="" style="group;rounded=0;" parent="237" vertex="1" connectable="0">
                    <mxGeometry x="131" y="90" width="20" height="20" as="geometry"/>
                </mxCell>
                <mxCell id="287" value="" style="ellipse;whiteSpace=wrap;html=1;aspect=fixed;rounded=0;" parent="286" vertex="1">
                    <mxGeometry width="20" height="20" as="geometry"/>
                </mxCell>
                <mxCell id="288" value="" style="endArrow=none;html=1;entryX=0.5;entryY=0;entryDx=0;entryDy=0;exitX=0.5;exitY=1;exitDx=0;exitDy=0;rounded=0;" parent="286" edge="1">
                    <mxGeometry width="50" height="50" relative="1" as="geometry">
                        <mxPoint x="9.88000000000011" y="20" as="sourcePoint"/>
                        <mxPoint x="9.88000000000011" as="targetPoint"/>
                    </mxGeometry>
                </mxCell>
                <mxCell id="289" value="" style="group;rounded=0;" parent="237" vertex="1" connectable="0">
                    <mxGeometry x="131" y="60" width="20" height="20" as="geometry"/>
                </mxCell>
                <mxCell id="290" value="" style="ellipse;whiteSpace=wrap;html=1;aspect=fixed;rounded=0;" parent="289" vertex="1">
                    <mxGeometry width="20" height="20" as="geometry"/>
                </mxCell>
                <mxCell id="291" value="" style="endArrow=none;html=1;entryX=0.5;entryY=0;entryDx=0;entryDy=0;exitX=0.5;exitY=1;exitDx=0;exitDy=0;rounded=0;" parent="289" source="290" target="290" edge="1">
                    <mxGeometry width="50" height="50" relative="1" as="geometry">
                        <mxPoint x="29" y="100" as="sourcePoint"/>
                        <mxPoint x="79" y="50" as="targetPoint"/>
                    </mxGeometry>
                </mxCell>
                <mxCell id="292" style="edgeStyle=orthogonalEdgeStyle;rounded=0;html=1;exitX=1;exitY=0.5;exitDx=0;exitDy=0;entryX=0.5;entryY=1;entryDx=0;entryDy=0;entryPerimeter=0;endArrow=none;endFill=0;" parent="237" source="293" target="313" edge="1">
                    <mxGeometry relative="1" as="geometry"/>
                </mxCell>
                <mxCell id="293" value="" style="ellipse;whiteSpace=wrap;html=1;aspect=fixed;rounded=0;" parent="237" vertex="1">
                    <mxGeometry x="170" y="95" width="10" height="10" as="geometry"/>
                </mxCell>
                <mxCell id="294" style="edgeStyle=orthogonalEdgeStyle;rounded=0;html=1;exitX=1;exitY=0.5;exitDx=0;exitDy=0;entryX=0.5;entryY=1;entryDx=0;entryDy=0;entryPerimeter=0;endArrow=none;endFill=0;" parent="237" source="295" target="315" edge="1">
                    <mxGeometry relative="1" as="geometry"/>
                </mxCell>
                <mxCell id="295" value="" style="ellipse;whiteSpace=wrap;html=1;aspect=fixed;rounded=0;" parent="237" vertex="1">
                    <mxGeometry x="170" y="205" width="10" height="10" as="geometry"/>
                </mxCell>
                <mxCell id="296" value="" style="endArrow=none;dashed=1;html=1;dashPattern=1 3;strokeWidth=2;rounded=0;" parent="237" edge="1">
                    <mxGeometry width="50" height="50" relative="1" as="geometry">
                        <mxPoint x="141" y="150" as="sourcePoint"/>
                        <mxPoint x="141" y="130" as="targetPoint"/>
                    </mxGeometry>
                </mxCell>
                <mxCell id="297" style="edgeStyle=none;html=1;exitX=1;exitY=0.5;exitDx=0;exitDy=0;entryX=0;entryY=0.5;entryDx=0;entryDy=0;endArrow=none;endFill=0;" parent="237" source="303" target="271" edge="1">
                    <mxGeometry relative="1" as="geometry"/>
                </mxCell>
                <mxCell id="298" style="edgeStyle=none;html=1;exitX=1;exitY=0.5;exitDx=0;exitDy=0;entryX=0;entryY=0.5;entryDx=0;entryDy=0;endArrow=none;endFill=0;" parent="237" source="303" target="272" edge="1">
                    <mxGeometry relative="1" as="geometry"/>
                </mxCell>
                <mxCell id="299" style="edgeStyle=none;html=1;exitX=1;exitY=0.5;exitDx=0;exitDy=0;entryX=0;entryY=0.5;entryDx=0;entryDy=0;endArrow=none;endFill=0;" parent="237" source="303" target="273" edge="1">
                    <mxGeometry relative="1" as="geometry"/>
                </mxCell>
                <mxCell id="300" style="edgeStyle=none;html=1;exitX=1;exitY=0.5;exitDx=0;exitDy=0;entryX=0;entryY=0.5;entryDx=0;entryDy=0;endArrow=none;endFill=0;" parent="237" source="303" target="274" edge="1">
                    <mxGeometry relative="1" as="geometry"/>
                </mxCell>
                <mxCell id="301" style="edgeStyle=none;html=1;exitX=1;exitY=0.5;exitDx=0;exitDy=0;entryX=0;entryY=0.5;entryDx=0;entryDy=0;endArrow=none;endFill=0;" parent="237" source="303" target="275" edge="1">
                    <mxGeometry relative="1" as="geometry"/>
                </mxCell>
                <mxCell id="302" style="edgeStyle=none;html=1;exitX=1;exitY=0.5;exitDx=0;exitDy=0;entryX=0;entryY=0.5;entryDx=0;entryDy=0;endArrow=none;endFill=0;" parent="237" source="303" target="276" edge="1">
                    <mxGeometry relative="1" as="geometry"/>
                </mxCell>
                <mxCell id="303" value="" style="ellipse;whiteSpace=wrap;html=1;aspect=fixed;rounded=0;" parent="237" vertex="1">
                    <mxGeometry x="220" y="70" width="20" height="20" as="geometry"/>
                </mxCell>
                <mxCell id="304" style="edgeStyle=none;html=1;exitX=1;exitY=0.5;exitDx=0;exitDy=0;entryX=0;entryY=0.5;entryDx=0;entryDy=0;endArrow=none;endFill=0;" parent="237" source="309" target="272" edge="1">
                    <mxGeometry relative="1" as="geometry"/>
                </mxCell>
                <mxCell id="305" style="edgeStyle=none;html=1;exitX=1;exitY=0.5;exitDx=0;exitDy=0;entryX=0;entryY=0.5;entryDx=0;entryDy=0;endArrow=none;endFill=0;" parent="237" source="309" target="273" edge="1">
                    <mxGeometry relative="1" as="geometry"/>
                </mxCell>
                <mxCell id="306" style="edgeStyle=none;html=1;exitX=1;exitY=0.5;exitDx=0;exitDy=0;entryX=0;entryY=0.5;entryDx=0;entryDy=0;endArrow=none;endFill=0;" parent="237" source="309" target="274" edge="1">
                    <mxGeometry relative="1" as="geometry"/>
                </mxCell>
                <mxCell id="307" style="edgeStyle=none;html=1;exitX=1;exitY=0.5;exitDx=0;exitDy=0;entryX=0;entryY=0.5;entryDx=0;entryDy=0;endArrow=none;endFill=0;" parent="237" source="309" target="275" edge="1">
                    <mxGeometry relative="1" as="geometry"/>
                </mxCell>
                <mxCell id="308" style="edgeStyle=none;html=1;exitX=1;exitY=0.5;exitDx=0;exitDy=0;entryX=0;entryY=0.5;entryDx=0;entryDy=0;endArrow=none;endFill=0;" parent="237" source="309" target="276" edge="1">
                    <mxGeometry relative="1" as="geometry"/>
                </mxCell>
                <mxCell id="309" value="" style="ellipse;whiteSpace=wrap;html=1;aspect=fixed;rounded=0;" parent="237" vertex="1">
                    <mxGeometry x="220" y="190" width="20" height="20" as="geometry"/>
                </mxCell>
                <mxCell id="310" value="" style="endArrow=none;dashed=1;html=1;dashPattern=1 3;strokeWidth=2;rounded=0;" parent="237" edge="1">
                    <mxGeometry width="50" height="50" relative="1" as="geometry">
                        <mxPoint x="69.87" y="150" as="sourcePoint"/>
                        <mxPoint x="69.87" y="130" as="targetPoint"/>
                    </mxGeometry>
                </mxCell>
                <mxCell id="311" value="" style="endArrow=none;dashed=1;html=1;dashPattern=1 3;strokeWidth=2;rounded=0;" parent="237" edge="1">
                    <mxGeometry width="50" height="50" relative="1" as="geometry">
                        <mxPoint x="279.8699999999999" y="150" as="sourcePoint"/>
                        <mxPoint x="279.8699999999999" y="130" as="targetPoint"/>
                    </mxGeometry>
                </mxCell>
                <mxCell id="312" style="edgeStyle=orthogonalEdgeStyle;rounded=0;html=1;exitX=1;exitY=0.5;exitDx=0;exitDy=0;exitPerimeter=0;entryX=0;entryY=0.5;entryDx=0;entryDy=0;endArrow=none;endFill=0;" parent="237" source="313" target="303" edge="1">
                    <mxGeometry relative="1" as="geometry"/>
                </mxCell>
                <mxCell id="313" value="" style="verticalLabelPosition=bottom;verticalAlign=top;html=1;shape=mxgraph.flowchart.summing_function;rounded=0;" parent="237" vertex="1">
                    <mxGeometry x="190" y="75" width="10" height="10" as="geometry"/>
                </mxCell>
                <mxCell id="314" style="edgeStyle=orthogonalEdgeStyle;rounded=0;html=1;exitX=1;exitY=0.5;exitDx=0;exitDy=0;exitPerimeter=0;entryX=0;entryY=0.5;entryDx=0;entryDy=0;endArrow=none;endFill=0;" parent="237" source="315" target="309" edge="1">
                    <mxGeometry relative="1" as="geometry"/>
                </mxCell>
                <mxCell id="315" value="" style="verticalLabelPosition=bottom;verticalAlign=top;html=1;shape=mxgraph.flowchart.summing_function;rounded=0;" parent="237" vertex="1">
                    <mxGeometry x="190" y="195" width="10" height="10" as="geometry"/>
                </mxCell>
                <mxCell id="316" style="html=1;exitX=1;exitY=0.5;exitDx=0;exitDy=0;entryX=0.5;entryY=0;entryDx=0;entryDy=0;entryPerimeter=0;endArrow=none;endFill=0;rounded=0;edgeStyle=orthogonalEdgeStyle;" parent="237" source="290" target="313" edge="1">
                    <mxGeometry relative="1" as="geometry">
                        <Array as="points">
                            <mxPoint x="195" y="70"/>
                        </Array>
                    </mxGeometry>
                </mxCell>
                <mxCell id="317" style="edgeStyle=orthogonalEdgeStyle;rounded=0;html=1;exitX=1;exitY=0.5;exitDx=0;exitDy=0;entryX=0;entryY=0.5;entryDx=0;entryDy=0;endArrow=none;endFill=0;" parent="237" source="287" target="293" edge="1">
                    <mxGeometry relative="1" as="geometry"/>
                </mxCell>
                <mxCell id="318" style="edgeStyle=orthogonalEdgeStyle;rounded=0;html=1;exitX=1;exitY=0.5;exitDx=0;exitDy=0;entryX=0.5;entryY=0;entryDx=0;entryDy=0;entryPerimeter=0;endArrow=none;endFill=0;" parent="237" source="284" target="315" edge="1">
                    <mxGeometry relative="1" as="geometry"/>
                </mxCell>
                <mxCell id="319" style="edgeStyle=orthogonalEdgeStyle;rounded=0;html=1;exitX=1;exitY=0.5;exitDx=0;exitDy=0;entryX=0;entryY=0.5;entryDx=0;entryDy=0;endArrow=none;endFill=0;" parent="237" source="281" target="295" edge="1">
                    <mxGeometry relative="1" as="geometry"/>
                </mxCell>
                <mxCell id="320" style="html=1;exitX=1;exitY=0.5;exitDx=0;exitDy=0;endArrow=none;endFill=0;entryX=0;entryY=0.5;entryDx=0;entryDy=0;" parent="237" source="309" target="271" edge="1">
                    <mxGeometry relative="1" as="geometry">
                        <mxPoint x="260" y="149.99999999999994" as="targetPoint"/>
                    </mxGeometry>
                </mxCell>
                <mxCell id="358" style="edgeStyle=none;html=1;exitX=0.5;exitY=1;exitDx=0;exitDy=0;entryX=0;entryY=0.5;entryDx=0;entryDy=0;startArrow=none;startFill=0;endArrow=classic;endFill=1;" parent="236" source="321" target="324" edge="1">
                    <mxGeometry relative="1" as="geometry"/>
                </mxCell>
                <mxCell id="321" value="VAE入力処理" style="rounded=0;whiteSpace=wrap;html=1;fillColor=none;gradientColor=none;opacity=50;" parent="236" vertex="1">
                    <mxGeometry x="60" y="230" width="120" height="70" as="geometry"/>
                </mxCell>
                <mxCell id="355" style="edgeStyle=none;html=1;exitX=1;exitY=0.5;exitDx=0;exitDy=0;entryX=0;entryY=0.25;entryDx=0;entryDy=0;startArrow=none;startFill=0;endArrow=classic;endFill=1;" parent="236" source="322" target="237" edge="1">
                    <mxGeometry relative="1" as="geometry"/>
                </mxCell>
                <mxCell id="322" value="VAE利用管理" style="rounded=0;whiteSpace=wrap;html=1;fillColor=none;gradientColor=none;opacity=50;" parent="236" vertex="1">
                    <mxGeometry x="50" y="75" width="120" height="60" as="geometry"/>
                </mxCell>
                <mxCell id="359" style="edgeStyle=none;html=1;exitX=0.5;exitY=1;exitDx=0;exitDy=0;entryX=1;entryY=0.5;entryDx=0;entryDy=0;startArrow=none;startFill=0;endArrow=classic;endFill=1;" parent="236" source="323" target="324" edge="1">
                    <mxGeometry relative="1" as="geometry"/>
                </mxCell>
                <mxCell id="323" value="VAE出力処理" style="rounded=0;whiteSpace=wrap;html=1;fillColor=none;gradientColor=none;opacity=50;" parent="236" vertex="1">
                    <mxGeometry x="600" y="230" width="120" height="70" as="geometry"/>
                </mxCell>
                <mxCell id="360" style="edgeStyle=none;html=1;exitX=0.5;exitY=1;exitDx=0;exitDy=0;entryX=0.5;entryY=0;entryDx=0;entryDy=0;startArrow=none;startFill=0;endArrow=classic;endFill=1;" parent="236" source="324" target="325" edge="1">
                    <mxGeometry relative="1" as="geometry"/>
                </mxCell>
                <mxCell id="324" value="入出力比較・選択" style="rounded=0;whiteSpace=wrap;html=1;fillColor=none;gradientColor=none;opacity=50;" parent="236" vertex="1">
                    <mxGeometry x="325" y="390" width="120" height="70" as="geometry"/>
                </mxCell>
                <mxCell id="325" value="ブロック化" style="rounded=0;whiteSpace=wrap;html=1;fillColor=none;gradientColor=none;opacity=50;" parent="236" vertex="1">
                    <mxGeometry x="325" y="580" width="120" height="60" as="geometry"/>
                </mxCell>
                <mxCell id="326" value="ブロック結合" style="rounded=0;whiteSpace=wrap;html=1;fillColor=none;gradientColor=none;opacity=50;" parent="236" vertex="1">
                    <mxGeometry x="520" y="580" width="120" height="60" as="geometry"/>
                </mxCell>
                <mxCell id="356" style="edgeStyle=none;html=1;exitX=1;exitY=0.5;exitDx=0;exitDy=0;startArrow=none;startFill=0;endArrow=classic;endFill=1;entryX=0;entryY=0.75;entryDx=0;entryDy=0;" parent="236" source="321" target="237" edge="1">
                    <mxGeometry relative="1" as="geometry">
                        <mxPoint x="210" y="240" as="targetPoint"/>
                    </mxGeometry>
                </mxCell>
                <mxCell id="372" value="512×512&lt;br&gt;&amp;nbsp;Glay Image" style="sketch=0;outlineConnect=0;fontColor=#232F3E;gradientColor=none;fillColor=#000000;strokeColor=none;dashed=0;verticalLabelPosition=bottom;verticalAlign=top;align=center;html=1;fontSize=12;fontStyle=0;aspect=fixed;pointerEvents=1;shape=mxgraph.aws4.container_registry_image;opacity=50;" parent="236" vertex="1">
                    <mxGeometry x="630" y="659" width="40" height="40" as="geometry"/>
                </mxCell>
                <mxCell id="373" value="256×1024&#10;Vectors" style="group;labelPosition=center;verticalLabelPosition=bottom;align=center;verticalAlign=top;" parent="236" vertex="1" connectable="0">
                    <mxGeometry x="410" y="470" width="50" height="60" as="geometry"/>
                </mxCell>
                <mxCell id="374" value="" style="endArrow=none;dashed=1;html=1;dashPattern=1 3;strokeWidth=2;rounded=0;" parent="373" edge="1">
                    <mxGeometry width="50" height="50" relative="1" as="geometry">
                        <mxPoint x="50" y="29.840000000000003" as="sourcePoint"/>
                        <mxPoint x="30" y="29.840000000000003" as="targetPoint"/>
                    </mxGeometry>
                </mxCell>
                <mxCell id="375" value="" style="rounded=0;whiteSpace=wrap;html=1;fillColor=#000000;gradientColor=none;opacity=50;container=0;" parent="373" vertex="1">
                    <mxGeometry x="10" width="10" height="60" as="geometry"/>
                </mxCell>
                <mxCell id="376" value="" style="rounded=0;whiteSpace=wrap;html=1;fillColor=#000000;gradientColor=none;opacity=50;container=0;" parent="373" vertex="1">
                    <mxGeometry width="10" height="60" as="geometry"/>
                </mxCell>
                <mxCell id="377" value="" style="rounded=0;whiteSpace=wrap;html=1;fillColor=#000000;gradientColor=none;opacity=50;container=0;" parent="373" vertex="1">
                    <mxGeometry x="20" width="10" height="60" as="geometry"/>
                </mxCell>
                <mxCell id="361" style="edgeStyle=none;html=1;exitX=1;exitY=0.5;exitDx=0;exitDy=0;entryX=0;entryY=0.5;entryDx=0;entryDy=0;startArrow=none;startFill=0;endArrow=classic;endFill=1;" parent="236" edge="1">
                    <mxGeometry relative="1" as="geometry">
                        <mxPoint x="445" y="610" as="sourcePoint"/>
                        <mxPoint x="520" y="610" as="targetPoint"/>
                    </mxGeometry>
                </mxCell>
                <mxCell id="366" value="16×16×1024&#10;Glay Image Blocks&#10;" style="group;labelPosition=center;verticalLabelPosition=bottom;align=center;verticalAlign=top;" parent="236" vertex="1" connectable="0">
                    <mxGeometry x="440" y="650" width="90" height="90" as="geometry"/>
                </mxCell>
                <mxCell id="367" value="" style="whiteSpace=wrap;html=1;aspect=fixed;fillColor=#000000;gradientColor=none;opacity=50;verticalAlign=top;labelPosition=center;verticalLabelPosition=bottom;align=center;" parent="366" vertex="1">
                    <mxGeometry width="40" height="40" as="geometry"/>
                </mxCell>
                <mxCell id="368" value="" style="endArrow=none;dashed=1;html=1;dashPattern=1 3;strokeWidth=2;rounded=0;" parent="366" edge="1">
                    <mxGeometry width="50" height="50" relative="1" as="geometry">
                        <mxPoint x="90" y="30" as="sourcePoint"/>
                        <mxPoint x="70" y="30" as="targetPoint"/>
                    </mxGeometry>
                </mxCell>
                <mxCell id="369" value="" style="endArrow=none;dashed=1;html=1;dashPattern=1 3;strokeWidth=2;rounded=0;" parent="366" edge="1">
                    <mxGeometry width="50" height="50" relative="1" as="geometry">
                        <mxPoint x="39.60000000000002" y="90" as="sourcePoint"/>
                        <mxPoint x="39.60000000000002" y="70" as="targetPoint"/>
                    </mxGeometry>
                </mxCell>
                <mxCell id="370" value="" style="whiteSpace=wrap;html=1;aspect=fixed;fillColor=#000000;gradientColor=none;opacity=50;verticalAlign=top;labelPosition=center;verticalLabelPosition=bottom;align=center;" parent="366" vertex="1">
                    <mxGeometry x="10" y="11" width="40" height="40" as="geometry"/>
                </mxCell>
                <mxCell id="371" value="" style="whiteSpace=wrap;html=1;aspect=fixed;fillColor=#000000;gradientColor=none;opacity=50;verticalAlign=top;labelPosition=center;verticalLabelPosition=bottom;align=center;" parent="366" vertex="1">
                    <mxGeometry x="20" y="21" width="40" height="40" as="geometry"/>
                </mxCell>
                <mxCell id="350" style="edgeStyle=none;html=1;exitX=1;exitY=0.5;exitDx=0;exitDy=0;entryX=0;entryY=0.5;entryDx=0;entryDy=0;startArrow=none;startFill=0;endArrow=classic;endFill=1;" parent="1" source="6" target="234" edge="1">
                    <mxGeometry relative="1" as="geometry"/>
                </mxCell>
                <mxCell id="353" style="edgeStyle=none;html=1;exitX=1;exitY=0.5;exitDx=0;exitDy=0;entryX=0;entryY=0.5;entryDx=0;entryDy=0;startArrow=none;startFill=0;endArrow=classic;endFill=1;" parent="1" source="6" target="321" edge="1">
                    <mxGeometry relative="1" as="geometry"/>
                </mxCell>
                <mxCell id="380" style="edgeStyle=none;html=1;exitX=0.5;exitY=1;exitDx=0;exitDy=0;entryX=0.5;entryY=0;entryDx=0;entryDy=0;" edge="1" parent="1" source="235" target="322">
                    <mxGeometry relative="1" as="geometry"/>
                </mxCell>
            </root>
        </mxGraphModel>
    </diagram>
</mxfile>